<mxfile host="app.diagrams.net" modified="2023-11-20T14:07:26.907Z" agent="Mozilla/5.0 (Windows NT 10.0; Win64; x64) AppleWebKit/537.36 (KHTML, like Gecko) Chrome/119.0.0.0 Safari/537.36" etag="cCN4Rjhg11suvEJpWLJ6" version="22.1.3" type="github">
  <diagram name="Page-1" id="b5b7bab2-c9e2-2cf4-8b2a-24fd1a2a6d21">
    <mxGraphModel dx="1434" dy="758" grid="1" gridSize="10" guides="1" tooltips="1" connect="1" arrows="1" fold="1" page="1" pageScale="1" pageWidth="827" pageHeight="1169" background="none" math="0" shadow="0">
      <root>
        <mxCell id="0" />
        <mxCell id="1" parent="0" />
        <mxCell id="cY8iYwSnqGREJiL_UpMX-3" value="infraestructure" style="shape=module;align=left;spacingLeft=20;align=center;verticalAlign=top;whiteSpace=wrap;html=1;" parent="1" vertex="1">
          <mxGeometry x="440" y="560" width="470" height="145" as="geometry" />
        </mxCell>
        <mxCell id="cY8iYwSnqGREJiL_UpMX-2" value="domain" style="shape=module;align=left;spacingLeft=20;align=center;verticalAlign=top;whiteSpace=wrap;html=1;" parent="1" vertex="1">
          <mxGeometry x="410" y="870" width="471" height="130" as="geometry" />
        </mxCell>
        <mxCell id="6e0c8c40b5770093-67" style="edgeStyle=none;rounded=0;html=1;entryX=0.5;entryY=0;dashed=1;labelBackgroundColor=none;startFill=0;endArrow=open;endFill=0;endSize=10;fontFamily=Verdana;fontSize=10;entryDx=0;entryDy=0;exitX=0.5;exitY=1;exitDx=0;exitDy=0;" parent="1" source="cY8iYwSnqGREJiL_UpMX-3" target="cY8iYwSnqGREJiL_UpMX-2" edge="1">
          <mxGeometry relative="1" as="geometry" />
        </mxCell>
        <mxCell id="6e0c8c40b5770093-42" value="repository" style="shape=folder;fontStyle=1;spacingTop=10;tabWidth=50;tabHeight=17;tabPosition=left;html=1;rounded=0;shadow=0;comic=0;labelBackgroundColor=none;strokeColor=#000000;strokeWidth=1;fillColor=#ffffff;fontFamily=Verdana;fontSize=10;fontColor=#000000;align=center;" parent="1" vertex="1">
          <mxGeometry x="500" y="590" width="112" height="70" as="geometry" />
        </mxCell>
        <mxCell id="6e0c8c40b5770093-45" value="web" style="shape=folder;fontStyle=1;spacingTop=10;tabWidth=50;tabHeight=17;tabPosition=left;html=1;rounded=0;shadow=0;comic=0;labelBackgroundColor=none;strokeColor=#000000;strokeWidth=1;fillColor=#ffffff;fontFamily=Verdana;fontSize=10;fontColor=#000000;align=center;" parent="1" vertex="1">
          <mxGeometry x="660" y="590" width="112" height="70" as="geometry" />
        </mxCell>
        <mxCell id="6e0c8c40b5770093-49" value="usecase" style="shape=folder;fontStyle=1;spacingTop=10;tabWidth=50;tabHeight=17;tabPosition=left;html=1;rounded=0;shadow=0;comic=0;labelBackgroundColor=none;strokeWidth=1;fontFamily=Verdana;fontSize=10;align=center;" parent="1" vertex="1">
          <mxGeometry x="470" y="900" width="112" height="70" as="geometry" />
        </mxCell>
        <mxCell id="6e0c8c40b5770093-50" value="entity" style="shape=folder;fontStyle=1;spacingTop=10;tabWidth=50;tabHeight=17;tabPosition=left;html=1;rounded=0;shadow=0;comic=0;labelBackgroundColor=none;strokeWidth=1;fontFamily=Verdana;fontSize=10;align=center;" parent="1" vertex="1">
          <mxGeometry x="730" y="890" width="112" height="70" as="geometry" />
        </mxCell>
        <mxCell id="6e0c8c40b5770093-60" style="rounded=0;html=1;entryX=0.5;entryY=0;dashed=1;labelBackgroundColor=none;startFill=0;endArrow=open;endFill=0;endSize=10;fontFamily=Verdana;fontSize=10;exitX=0.5;exitY=1;exitDx=0;exitDy=0;entryDx=0;entryDy=0;" parent="1" source="cY8iYwSnqGREJiL_UpMX-1" target="cY8iYwSnqGREJiL_UpMX-3" edge="1">
          <mxGeometry relative="1" as="geometry" />
        </mxCell>
        <mxCell id="cY8iYwSnqGREJiL_UpMX-1" value="boot" style="shape=module;align=left;spacingLeft=20;align=center;verticalAlign=top;whiteSpace=wrap;html=1;" parent="1" vertex="1">
          <mxGeometry x="508.5" y="220" width="571.5" height="180" as="geometry" />
        </mxCell>
        <mxCell id="6e0c8c40b5770093-17" value="config" style="shape=folder;fontStyle=1;spacingTop=10;tabWidth=50;tabHeight=17;tabPosition=left;html=1;rounded=0;shadow=0;comic=0;labelBackgroundColor=none;strokeWidth=1;fontFamily=Verdana;fontSize=10;align=center;" parent="1" vertex="1">
          <mxGeometry x="910" y="260" width="112" height="70" as="geometry" />
        </mxCell>
        <mxCell id="IiBi-vbJgRH8YNBu3HkP-1" value="HelloSpringbootApplication" style="swimlane;fontStyle=1;align=center;verticalAlign=top;childLayout=stackLayout;horizontal=1;startSize=26;horizontalStack=0;resizeParent=1;resizeParentMax=0;resizeLast=0;collapsible=1;marginBottom=0;whiteSpace=wrap;html=1;" vertex="1" collapsed="1" parent="1">
          <mxGeometry x="570" y="252" width="200" height="30" as="geometry">
            <mxRectangle x="570" y="252" width="230" height="86" as="alternateBounds" />
          </mxGeometry>
        </mxCell>
        <mxCell id="IiBi-vbJgRH8YNBu3HkP-2" value="+ field: type" style="text;strokeColor=none;fillColor=none;align=left;verticalAlign=top;spacingLeft=4;spacingRight=4;overflow=hidden;rotatable=0;points=[[0,0.5],[1,0.5]];portConstraint=eastwest;whiteSpace=wrap;html=1;" vertex="1" parent="IiBi-vbJgRH8YNBu3HkP-1">
          <mxGeometry y="26" width="230" height="26" as="geometry" />
        </mxCell>
        <mxCell id="IiBi-vbJgRH8YNBu3HkP-3" value="" style="line;strokeWidth=1;fillColor=none;align=left;verticalAlign=middle;spacingTop=-1;spacingLeft=3;spacingRight=3;rotatable=0;labelPosition=right;points=[];portConstraint=eastwest;strokeColor=inherit;" vertex="1" parent="IiBi-vbJgRH8YNBu3HkP-1">
          <mxGeometry y="52" width="230" height="8" as="geometry" />
        </mxCell>
        <mxCell id="IiBi-vbJgRH8YNBu3HkP-4" value="+ method(type): type" style="text;strokeColor=none;fillColor=none;align=left;verticalAlign=top;spacingLeft=4;spacingRight=4;overflow=hidden;rotatable=0;points=[[0,0.5],[1,0.5]];portConstraint=eastwest;whiteSpace=wrap;html=1;" vertex="1" parent="IiBi-vbJgRH8YNBu3HkP-1">
          <mxGeometry y="60" width="230" height="26" as="geometry" />
        </mxCell>
        <mxCell id="IiBi-vbJgRH8YNBu3HkP-5" value="repository" style="shape=folder;fontStyle=1;spacingTop=10;tabWidth=50;tabHeight=17;tabPosition=left;html=1;rounded=0;shadow=0;comic=0;labelBackgroundColor=none;strokeColor=#000000;strokeWidth=1;fillColor=#ffffff;fontFamily=Verdana;fontSize=10;fontColor=#000000;align=center;" vertex="1" parent="1">
          <mxGeometry x="600" y="910" width="112" height="70" as="geometry" />
        </mxCell>
      </root>
    </mxGraphModel>
  </diagram>
</mxfile>
